<svg xmlns="http://www.w3.org/2000/svg" viewBox="0 0 48 47" width="48" height="47">
	<defs>
		<clipPath clipPathUnits="userSpaceOnUse" id="cp1">
			<path d="M-1299 -698L67 -698L67 70L-1299 70Z" />
		</clipPath>
	</defs>
	<style>
		tspan { white-space:pre }
		.shp0 { fill: #10a8e5 } 
		.shp1 { fill: #ffffff } 
	</style>
	<g id="Home – 8" clip-path="url(#cp1)">
		<g id="CTA Add Card">
			<g id="Group 9613">
				<path id="marius-ciocirlan-398931-unsplash" class="shp0" d="M23.5 0C36.5 0 47 10.5 47 23.5C47 36.5 36.5 47 23.5 47C10.5 47 0 36.5 0 23.5C0 10.5 10.5 0 23.5 0Z" />
				<path id="union" class="shp1" d="M25.03 18.3L29.99 23.26C30.17 23.37 30.29 23.57 30.29 23.8C30.29 23.91 30.26 24.01 30.22 24.1C30.19 24.16 30.15 24.21 30.1 24.26C30.08 24.28 30.05 24.3 30.03 24.32L25.03 29.32C24.79 29.57 24.39 29.57 24.14 29.32C23.89 29.07 23.89 28.67 24.14 28.43L28.13 24.43L17.44 24.43C17.09 24.43 16.81 24.15 16.81 23.8C16.81 23.45 17.09 23.17 17.44 23.17L28.11 23.17L24.14 19.2C23.89 18.95 23.89 18.55 24.14 18.3C24.26 18.18 24.42 18.12 24.59 18.12C24.75 18.12 24.91 18.18 25.03 18.3Z" />
			</g>
		</g>
	</g>
</svg>