<svg xmlns="http://www.w3.org/2000/svg" viewBox="0 0 21 21" width="21" height="21">
	<defs>
		<clipPath clipPathUnits="userSpaceOnUse" id="cp1">
			<path d="M-29 -367L1337 -367L1337 401L-29 401Z" />
		</clipPath>
		<clipPath clipPathUnits="userSpaceOnUse" id="cp2">
			<path d="M1 1L20 1L20 20L1 20L1 1Z" />
		</clipPath>
	</defs>
	<style>
		tspan { white-space:pre }
		.shp0 { fill: #828282;stroke: #707070;stroke-width: 0.1 } 
	</style>
	<g id="Home – 1" clip-path="url(#cp1)">
		<g id="Group 210">
			<g id="Mask Group 6" clip-path="url(#cp2)">
				<g id="gavel">
					<path id="Path 64" fill-rule="evenodd" class="shp0" d="M11.76 9.78L3.06 18.47C2.84 18.7 2.55 18.81 2.25 18.81C1.96 18.81 1.67 18.7 1.44 18.47C1 18.02 1 17.3 1.44 16.85L10.14 8.16L9.2 7.22C9.04 7.3 8.86 7.35 8.69 7.35C8.43 7.35 8.17 7.25 7.97 7.07C7.83 6.94 7.73 6.78 7.67 6.61C7.61 6.4 7.44 6.23 7.23 6.16C7.05 6.11 6.9 6.01 6.77 5.87C6.38 5.45 6.4 4.78 6.81 4.37L9.86 1.32C10.27 0.91 10.95 0.89 11.36 1.28C11.5 1.41 11.6 1.56 11.65 1.74C11.72 1.95 11.89 2.11 12.1 2.18C12.27 2.24 12.43 2.34 12.56 2.47C12.87 2.81 12.92 3.31 12.71 3.71L16.04 7.04C16.44 6.83 16.94 6.88 17.28 7.2C17.41 7.32 17.51 7.48 17.57 7.65C17.64 7.86 17.8 8.03 18.02 8.1C18.19 8.15 18.35 8.25 18.47 8.39C18.86 8.81 18.84 9.48 18.43 9.89L15.39 12.94C15.17 13.15 14.89 13.26 14.61 13.26C14.34 13.26 14.08 13.17 13.88 12.98C13.75 12.86 13.65 12.7 13.59 12.52C13.52 12.31 13.35 12.15 13.14 12.08C12.97 12.02 12.81 11.92 12.69 11.79C12.37 11.45 12.32 10.95 12.53 10.55L11.76 9.78ZM17.85 8.61C17.75 8.58 17.66 8.54 17.57 8.48L13.97 12.08C14.03 12.16 14.07 12.26 14.1 12.36C14.13 12.44 14.18 12.52 14.25 12.58C14.46 12.78 14.79 12.77 15 12.56L18.05 9.51C18.26 9.3 18.27 8.97 18.08 8.76C18.01 8.69 17.94 8.64 17.85 8.61ZM16.55 7.45C16.41 7.45 16.26 7.51 16.16 7.62L14.63 9.14L13.11 10.66C12.9 10.87 12.89 11.21 13.08 11.42C13.15 11.49 13.22 11.54 13.31 11.56C13.41 11.6 13.5 11.64 13.59 11.69L17.19 8.1C17.13 8.01 17.09 7.92 17.05 7.82C17.03 7.73 16.98 7.66 16.91 7.59C16.81 7.5 16.68 7.45 16.55 7.45ZM7.39 5.65C7.49 5.68 7.59 5.73 7.67 5.78L11.27 2.18C11.22 2.1 11.17 2 11.14 1.9C11.11 1.82 11.06 1.74 10.99 1.68C10.9 1.59 10.77 1.54 10.64 1.54C10.49 1.54 10.35 1.6 10.24 1.7L7.2 4.75C6.99 4.96 6.97 5.3 7.17 5.5C7.23 5.57 7.31 5.62 7.39 5.65ZM9.09 6.64L12.13 3.6C12.34 3.39 12.35 3.05 12.16 2.84C12.1 2.77 12.02 2.73 11.93 2.7C11.83 2.67 11.74 2.62 11.65 2.57L8.06 6.16C8.11 6.25 8.16 6.34 8.19 6.44C8.22 6.53 8.27 6.61 8.33 6.67C8.54 6.86 8.88 6.85 9.09 6.64ZM9.62 6.88L12.88 10.13L14.25 8.76L15.62 7.38L12.37 4.13L9.62 6.88ZM11.37 9.4L10.52 8.54L1.83 17.23C1.59 17.47 1.59 17.85 1.83 18.09C2.06 18.32 2.45 18.32 2.68 18.09L11.37 9.4Z" />
					<path id="Path 65" fill-rule="evenodd" class="shp0" d="M19.89 19.73C19.89 19.88 19.77 20 19.62 20L9.72 20C9.57 20 9.45 19.88 9.45 19.73L9.45 18.58C9.45 18.52 9.47 18.46 9.51 18.41L10.61 16.97L10.61 16.31C10.61 16.16 10.73 16.04 10.88 16.04L18.46 16.04C18.61 16.04 18.73 16.16 18.73 16.31L18.73 16.97L19.83 18.41C19.87 18.46 19.89 18.52 19.89 18.58L19.89 19.73ZM11.15 16.58L11.15 16.79L18.19 16.79L18.19 16.58L11.15 16.58ZM10.27 18.3L19.07 18.3L18.33 17.33L11.01 17.33L10.27 18.3ZM19.35 19.46L19.35 18.85L9.99 18.85L9.99 19.46L19.35 19.46Z" />
					<path id="Path 66" class="shp0" d="M14.46 7.52C14.51 7.58 14.58 7.6 14.65 7.6C14.72 7.6 14.79 7.58 14.84 7.52C14.94 7.42 14.94 7.25 14.84 7.14L12.61 4.91C12.51 4.81 12.33 4.81 12.23 4.91C12.12 5.02 12.12 5.19 12.23 5.3L14.46 7.52Z" />
				</g>
			</g>
		</g>
	</g>
</svg>