<svg xmlns="http://www.w3.org/2000/svg" viewBox="0 0 36 29" width="36" height="29">
	<defs>
		<clipPath clipPathUnits="userSpaceOnUse" id="cp1">
			<path d="M-276 -629L1090 -629L1090 139L-276 139Z" />
		</clipPath>
	</defs>
	<style>
		tspan { white-space:pre }
		.shp0 { fill: #508ff4 } 
	</style>
	<g id="Home – 1" clip-path="url(#cp1)">
		<g id="traffic statistics">
			<g id="new vision">
				<g id="Group 9670">
					<path id="Path 73" fill-rule="evenodd" class="shp0" d="M30.64 8.42C30.64 11.78 27.91 14.5 24.56 14.5C23.03 14.5 21.61 13.94 20.51 12.95C19.12 14.64 17.01 15.71 14.65 15.71C10.46 15.71 7.04 12.3 7.04 8.11C7.04 3.91 10.46 0.5 14.65 0.5C17.18 0.5 19.42 1.75 20.81 3.65C21.87 2.82 23.18 2.34 24.56 2.34C27.91 2.34 30.64 5.07 30.64 8.42ZM19.64 8.11C19.64 5.36 17.4 3.12 14.65 3.12C11.9 3.12 9.67 5.36 9.67 8.11C9.67 10.85 11.9 13.09 14.65 13.09C17.4 13.09 19.64 10.85 19.64 8.11ZM28.02 8.42C28.02 6.52 26.47 4.97 24.56 4.97C23.57 4.97 22.65 5.41 21.99 6.15C22.16 6.77 22.26 7.43 22.26 8.11C22.26 8.95 22.11 9.77 21.86 10.53C22.51 11.37 23.48 11.88 24.56 11.88C26.47 11.88 28.02 10.33 28.02 8.42Z" />
					<path id="Path 74" fill-rule="evenodd" class="shp0" d="M34.82 23.44L35.04 24.89L26.85 24.89C27.27 25.72 27.56 26.6 27.7 27.52L27.92 28.97L0.38 28.97L0.6 27.52C1.4 22.17 7.22 18.14 14.15 18.14C15.09 18.14 16.02 18.22 16.91 18.37C18.89 16.89 21.47 16.07 24.24 16.07C29.64 16.07 34.19 19.24 34.82 23.44ZM24.65 26.42C23.28 23.07 19.06 20.69 14.15 20.69C9.23 20.69 5.02 23.07 3.64 26.42L24.65 26.42ZM31.7 22.34C30.54 20.14 27.62 18.62 24.24 18.62C22.9 18.62 21.59 18.88 20.43 19.34C22.23 20.07 23.79 21.09 25.01 22.34L31.7 22.34Z" />
				</g>
			</g>
		</g>
	</g>
</svg>