<svg xmlns="http://www.w3.org/2000/svg" viewBox="0 0 17 19" width="17" height="19">
	<defs>
		<clipPath clipPathUnits="userSpaceOnUse" id="cp1">
			<path d="M-31 -315L1335 -315L1335 453L-31 453Z" />
		</clipPath>
		<clipPath clipPathUnits="userSpaceOnUse" id="cp2">
			<path d="M-1 0L18 0L18 19L-1 19L-1 0Z" />
		</clipPath>
	</defs>
	<style>
		tspan { white-space:pre }
		.shp0 { fill: #828282 } 
	</style>
	<g id="Home – 1" clip-path="url(#cp1)">
		<g id="Group 209">
			<g id="Mask Group 5" clip-path="url(#cp2)">
				<g id="money-bag">
					<g id="Group 223">
						<path id="Path 62" class="shp0" d="M9.14 11.93L8.05 11.93C7.66 11.93 7.34 11.61 7.34 11.21C7.34 10.82 7.66 10.5 8.05 10.5L9.97 10.5C10.23 10.5 10.44 10.28 10.44 10.02C10.44 9.76 10.23 9.55 9.97 9.55L9.07 9.55L9.07 8.89C9.07 8.63 8.86 8.41 8.59 8.41C8.33 8.41 8.12 8.63 8.12 8.89L8.12 9.55L8.05 9.55C7.14 9.55 6.39 10.29 6.39 11.21C6.39 12.13 7.14 12.87 8.05 12.87L9.14 12.87C9.53 12.87 9.85 13.19 9.85 13.59C9.85 13.98 9.53 14.3 9.14 14.3L7.19 14.3C6.93 14.3 6.72 14.52 6.72 14.78C6.72 15.04 6.93 15.25 7.19 15.25L8.12 15.25L8.12 15.93C8.12 16.19 8.34 16.4 8.6 16.4C8.86 16.4 9.07 16.19 9.07 15.93L9.07 15.25L9.15 15.25C9.16 15.25 9.16 15.25 9.16 15.25C10.07 15.24 10.8 14.5 10.8 13.59C10.8 12.67 10.06 11.93 9.14 11.93Z" />
						<path id="Path 63" fill-rule="evenodd" class="shp0" d="M16.66 15.32C16.66 17.35 15.01 19 12.98 19L4.02 19C1.99 19 0.34 17.35 0.34 15.32C0.34 13.8 0.65 12.29 1.28 10.85C1.78 9.71 2.47 8.6 3.33 7.56C4.36 6.32 5.39 5.48 5.93 5.08L3.76 1.8C3.63 1.62 3.66 1.37 3.81 1.21C4.55 0.45 5.3 0.09 6.19 0.09C6.89 0.09 7.61 0.31 8.55 0.65C8.62 0.68 8.69 0.69 8.78 0.69C9.05 0.69 9.38 0.55 9.74 0.4C10.19 0.21 10.71 0 11.27 0C11.89 0 12.44 0.25 12.96 0.76C13.12 0.9 13.15 1.13 13.05 1.32L11.04 5.06C11.57 5.45 12.62 6.29 13.67 7.56C14.54 8.6 15.22 9.71 15.72 10.85C16.34 12.29 16.66 13.8 16.66 15.32ZM6.83 4.72L10.13 4.72L12.03 1.2C11.71 0.97 11.45 0.94 11.27 0.94C10.89 0.94 10.51 1.1 10.1 1.27C9.68 1.45 9.23 1.63 8.77 1.63C8.58 1.63 8.4 1.6 8.22 1.54C7.38 1.22 6.75 1.03 6.19 1.03C5.66 1.03 5.23 1.21 4.77 1.6L6.83 4.72ZM15.7 15.32C15.7 12.79 14.78 10.39 12.95 8.18C11.8 6.79 10.63 5.92 10.27 5.67L6.72 5.67C6.37 5.92 5.19 6.79 4.04 8.18C2.22 10.39 1.29 12.79 1.29 15.32C1.29 16.83 2.51 18.05 4.02 18.05L12.98 18.05C14.49 18.05 15.71 16.83 15.7 15.32Z" />
					</g>
				</g>
			</g>
		</g>
	</g>
</svg>