<svg xmlns="http://www.w3.org/2000/svg" viewBox="0 0 20 17" width="20" height="17">
	<defs>
		<clipPath clipPathUnits="userSpaceOnUse" id="cp1">
			<path d="M-29 -157L1337 -157L1337 611L-29 611Z" />
		</clipPath>
		<clipPath clipPathUnits="userSpaceOnUse" id="cp2">
			<path d="M1 -1L20 -1L20 18L1 18L1 -1Z" />
		</clipPath>
	</defs>
	<style>
		tspan { white-space:pre }
		.shp0 { fill: #007be8 } 
	</style>
	<g id="Home – 1" clip-path="url(#cp1)">
		<g id="Group 205">
			<g id="Mask Group 1" clip-path="url(#cp2)">
				<g id="home">
					<g id="Group 213">
						<g id="Group 212">
							<path id="Path 53" class="shp0" d="M19.8 6.72L10.79 0.13C10.62 0 10.38 0 10.21 0.13L1.2 6.72C0.98 6.88 0.93 7.19 1.1 7.41C1.26 7.63 1.56 7.68 1.78 7.52L10.5 1.14L19.21 7.52C19.3 7.58 19.4 7.61 19.51 7.61C19.66 7.61 19.81 7.54 19.9 7.41C20.07 7.19 20.02 6.88 19.8 6.72Z" />
						</g>
					</g>
					<g id="Group 215">
						<g id="Group 214">
							<path id="Path 54" class="shp0" d="M17.41 7.63C17.14 7.63 16.92 7.85 16.92 8.12L16.92 15.98L12.97 15.98L12.97 11.69C12.97 10.33 11.86 9.22 10.5 9.22C9.14 9.22 8.03 10.33 8.03 11.69L8.03 15.98L4.08 15.98L4.08 8.12C4.08 7.85 3.86 7.63 3.59 7.63C3.32 7.63 3.09 7.85 3.09 8.12L3.09 16.47C3.09 16.75 3.32 16.97 3.59 16.97L8.53 16.97C8.78 16.97 9 16.77 9.02 16.51C9.02 16.5 9.02 16.49 9.02 16.47L9.02 11.69C9.02 10.88 9.68 10.21 10.5 10.21C11.32 10.21 11.98 10.88 11.98 11.69L11.98 16.47C11.98 16.49 11.98 16.5 11.98 16.51C12 16.77 12.21 16.97 12.47 16.97L17.41 16.97C17.68 16.97 17.9 16.75 17.9 16.47L17.9 8.12C17.9 7.85 17.68 7.63 17.41 7.63Z" />
						</g>
					</g>
				</g>
			</g>
		</g>
	</g>
</svg>