<svg xmlns="http://www.w3.org/2000/svg" viewBox="0 0 19 19" width="19" height="19">
	<defs>
		<clipPath clipPathUnits="userSpaceOnUse" id="cp1">
			<path d="M-66 -97L1300 -97L1300 671L-66 671Z" />
		</clipPath>
		<clipPath clipPathUnits="userSpaceOnUse" id="cp2">
			<path d="M0 0L19 0L19 19L0 19L0 0Z" />
		</clipPath>
	</defs>
	<style>
		tspan { white-space:pre }
		.shp0 { fill: #828282 } 
	</style>
	<g id="Home – 1" clip-path="url(#cp1)">
		<g id="Group 206">
			<g id="Mask Group 2" clip-path="url(#cp2)">
				<g id="upload">
					<g id="Group 216">
						<path id="Path 55" class="shp0" d="M15.45 5.31C15.25 4.1 14.65 3 13.74 2.16C12.72 1.23 11.4 0.72 10.03 0.72C8.96 0.72 7.93 1.02 7.04 1.6C6.3 2.07 5.69 2.72 5.25 3.48C5.07 3.44 4.87 3.42 4.68 3.42C3.02 3.42 1.66 4.77 1.66 6.43C1.66 6.65 1.69 6.86 1.73 7.06C0.65 7.84 0 9.1 0 10.44C0 11.52 0.4 12.57 1.14 13.4C1.89 14.26 2.89 14.76 3.95 14.82C3.96 14.82 3.97 14.82 3.98 14.82L7.34 14.82C7.63 14.82 7.87 14.58 7.87 14.29C7.87 14 7.63 13.76 7.34 13.76L4 13.76C2.4 13.67 1.05 12.15 1.05 10.44C1.05 9.33 1.65 8.3 2.61 7.74C2.83 7.61 2.92 7.34 2.84 7.1C2.76 6.89 2.72 6.67 2.72 6.43C2.72 5.35 3.6 4.47 4.68 4.47C4.91 4.47 5.13 4.51 5.34 4.59C5.6 4.68 5.89 4.56 6 4.32C6.74 2.77 8.31 1.77 10.03 1.77C12.33 1.77 14.24 3.49 14.46 5.78C14.48 6.02 14.66 6.21 14.89 6.25C16.63 6.55 17.94 8.15 17.94 9.99C17.94 11.93 16.42 13.62 14.53 13.76L11.65 13.76C11.36 13.76 11.13 14 11.13 14.29C11.13 14.58 11.36 14.82 11.65 14.82L14.55 14.82C14.57 14.82 14.58 14.82 14.59 14.82C15.78 14.73 16.9 14.18 17.73 13.27C18.55 12.36 19 11.2 19 9.99C19 7.79 17.5 5.84 15.45 5.31Z" />
						<path id="Path 56" class="shp0" d="M12.67 10.94C12.87 10.73 12.87 10.4 12.67 10.19L9.87 7.4C9.77 7.3 9.64 7.24 9.5 7.24C9.36 7.24 9.23 7.3 9.13 7.4L6.34 10.19C6.13 10.4 6.13 10.73 6.34 10.94C6.44 11.04 6.57 11.1 6.71 11.1C6.84 11.1 6.98 11.05 7.08 10.94L8.97 9.04L8.97 17.75C8.97 18.05 9.21 18.28 9.5 18.28C9.79 18.28 10.03 18.05 10.03 17.75L10.03 9.04L11.92 10.94C12.13 11.15 12.46 11.15 12.67 10.94Z" />
					</g>
				</g>
			</g>
		</g>
	</g>
</svg>