<svg xmlns="http://www.w3.org/2000/svg" viewBox="0 0 19 19" width="19" height="19">
	<defs>
		<clipPath clipPathUnits="userSpaceOnUse" id="cp1">
			<path d="M-30 -262L1336 -262L1336 506L-30 506Z" />
		</clipPath>
		<clipPath clipPathUnits="userSpaceOnUse" id="cp2">
			<path d="M0 0L19 0L19 19L0 19L0 0Z" />
		</clipPath>
	</defs>
	<style>
		tspan { white-space:pre }
		.shp0 { fill: #828282 } 
	</style>
	<g id="Home – 1" clip-path="url(#cp1)">
		<g id="Group 208">
			<g id="Mask Group 4" clip-path="url(#cp2)">
				<g id="bar-chart">
					<g id="Group 218">
						<g id="Group 217">
							<path id="Path 60" fill-rule="evenodd" class="shp0" d="M18.5 18.63C18.5 18.83 18.33 19 18.12 19L0.88 19C0.67 19 0.5 18.83 0.5 18.63C0.5 18.42 0.67 18.26 0.88 18.26L1.73 18.26L1.73 14.91C1.73 14.36 2.18 13.91 2.73 13.91L4.55 13.91C5.1 13.91 5.55 14.36 5.55 14.91L5.55 18.26L7.61 18.26L7.61 11.79C7.61 11.24 8.06 10.8 8.61 10.8L10.43 10.8C10.98 10.8 11.43 11.24 11.43 11.79L11.43 18.26L13.5 18.26L13.5 6.44C13.5 5.89 13.94 5.44 14.49 5.44L16.31 5.44C16.86 5.44 17.31 5.89 17.31 6.44L17.31 18.26L18.12 18.26C18.33 18.26 18.5 18.42 18.5 18.63ZM4.81 18.26L4.81 14.91C4.81 14.77 4.69 14.65 4.55 14.65L2.73 14.65C2.59 14.65 2.48 14.77 2.48 14.91L2.48 18.26L4.81 18.26ZM10.69 11.79C10.69 11.65 10.57 11.54 10.43 11.54L8.61 11.54C8.47 11.54 8.36 11.65 8.36 11.79L8.36 18.26L10.69 18.26L10.69 11.79ZM16.57 18.26L16.57 6.44C16.57 6.3 16.45 6.18 16.31 6.18L14.49 6.18C14.35 6.18 14.24 6.3 14.24 6.44L14.24 18.26L16.57 18.26Z" />
						</g>
					</g>
					<g id="Group 220">
						<g id="Group 219">
							<path id="Path 61" class="shp0" d="M17.31 0.39C17.31 0.29 17.28 0.19 17.2 0.11C17.12 0.03 17.02 0 16.92 0C16.91 0 16.91 0 16.9 0L14.66 0C14.45 0 14.29 0.17 14.29 0.37C14.29 0.58 14.45 0.74 14.66 0.74L16.04 0.74L12.37 4.41L10.99 3.03C10.92 2.96 10.83 2.92 10.73 2.92C10.63 2.92 10.54 2.96 10.47 3.03L3.79 9.7C3.65 9.84 3.65 10.08 3.79 10.22C3.87 10.3 3.96 10.33 4.06 10.33C4.15 10.33 4.25 10.3 4.32 10.22L10.73 3.81L12.11 5.2C12.26 5.34 12.49 5.34 12.64 5.2L16.57 1.27L16.57 2.52C16.57 2.73 16.73 2.89 16.94 2.89C17.14 2.89 17.31 2.73 17.31 2.52L17.31 0.41C17.31 0.4 17.31 0.4 17.31 0.39Z" />
						</g>
					</g>
				</g>
			</g>
		</g>
	</g>
</svg>