<svg xmlns="http://www.w3.org/2000/svg" viewBox="0 0 17 20" width="17" height="20">
	<defs>
		<clipPath clipPathUnits="userSpaceOnUse" id="cp1">
			<path d="M-31 -208L1335 -208L1335 560L-31 560Z" />
		</clipPath>
		<clipPath clipPathUnits="userSpaceOnUse" id="cp2">
			<path d="M-1 1L18 1L18 20L-1 20L-1 1Z" />
		</clipPath>
	</defs>
	<style>
		tspan { white-space:pre }
		.shp0 { fill: #828282 } 
	</style>
	<g id="Home – 1" clip-path="url(#cp1)">
		<g id="Mask Group 8" clip-path="url(#cp2)">
			<g id="video">
				<path id="Path 79" fill-rule="evenodd" class="shp0" d="M16.49 8.67C16.69 8.67 16.86 8.84 16.86 9.04L16.86 17.93C16.86 19.07 15.93 20 14.79 20L10.34 20C10.13 20 9.96 19.83 9.96 19.63C9.96 19.42 10.13 19.26 10.34 19.26L14.79 19.26C15.52 19.26 16.12 18.66 16.12 17.93L16.12 12.88L1.58 12.88L1.58 17.93C1.58 18.66 2.18 19.26 2.91 19.26L7.37 19.26C7.57 19.26 7.74 19.42 7.74 19.63C7.74 19.83 7.57 20 7.37 20L2.91 20C1.77 20 0.84 19.07 0.84 17.93L0.84 9.09L0.22 6.95C0.07 6.42 0.13 5.86 0.4 5.38C0.66 4.89 1.1 4.54 1.63 4.39L13.05 1.08C13.23 1.03 13.43 1 13.62 1C14.53 1 15.35 1.61 15.61 2.49L16.24 4.69C16.27 4.78 16.26 4.88 16.21 4.97C16.16 5.06 16.08 5.12 15.99 5.15L3.83 8.67L16.49 8.67ZM12 12.14L13.57 9.41L11.52 9.41L9.95 12.14L12 12.14ZM9.09 12.14L10.66 9.41L8.61 9.41L7.04 12.14L9.09 12.14ZM6.18 12.14L7.76 9.41L5.71 9.41L4.13 12.14L6.18 12.14ZM5.51 7.34C5.53 7.36 5.54 7.38 5.56 7.4L7.54 6.82L4.9 4.29C4.88 4.27 4.86 4.25 4.85 4.23L2.87 4.8L5.51 7.34ZM10.43 2.61L8.46 3.18L11.1 5.72C11.11 5.74 11.13 5.76 11.14 5.78L13.12 5.2L10.48 2.67C10.46 2.65 10.45 2.63 10.43 2.61ZM7.64 3.42L5.66 3.99L8.3 6.53C8.32 6.55 8.34 6.57 8.35 6.59L10.33 6.01L7.69 3.48C7.67 3.46 7.65 3.44 7.64 3.42ZM11.25 2.38L13.89 4.91C13.91 4.93 13.92 4.95 13.94 4.97L15.43 4.54L14.89 2.7C14.73 2.13 14.21 1.74 13.62 1.74C13.5 1.74 13.37 1.76 13.25 1.79L11.25 2.38ZM1.05 5.74C0.88 6.05 0.84 6.4 0.93 6.74L1.47 8.58L4.74 7.63L2.1 5.1C2.09 5.08 2.07 5.06 2.05 5.04L1.84 5.1C1.5 5.2 1.22 5.42 1.05 5.74ZM1.58 12.14L3.27 12.14L4.85 9.41L1.58 9.41L1.58 12.14ZM16.12 12.14L16.12 9.41L14.43 9.41L12.85 12.14L16.12 12.14Z" />
				<path id="Path 80" fill-rule="evenodd" class="shp0" d="M11.42 16.03C11.42 16.17 11.35 16.29 11.23 16.35L7.97 18.24C7.91 18.27 7.85 18.29 7.79 18.29C7.72 18.29 7.66 18.27 7.6 18.24C7.49 18.17 7.42 18.05 7.42 17.92L7.42 14.15C7.42 14.02 7.49 13.9 7.6 13.83C7.72 13.76 7.86 13.76 7.97 13.83L11.23 15.71C11.35 15.78 11.42 15.9 11.42 16.03ZM10.3 16.03L8.16 14.79L8.16 17.27L10.3 16.03Z" />
				<path id="Path 81" class="shp0" d="M8.85 19.26C8.65 19.26 8.48 19.42 8.48 19.63C8.48 19.83 8.65 20 8.85 20C9.06 20 9.22 19.83 9.22 19.63C9.22 19.42 9.06 19.26 8.85 19.26Z" />
			</g>
		</g>
	</g>
</svg>